<?xml version="1.0" standalone="no"?>
<!DOCTYPE svg PUBLIC "-//W3C//DTD SVG 20010904//EN"
 "http://www.w3.org/TR/2001/REC-SVG-20010904/DTD/svg10.dtd">
<svg version="1.0" xmlns="http://www.w3.org/2000/svg"
 width="225.000000pt" height="225.000000pt" viewBox="0 0 225.000000 225.000000"
 preserveAspectRatio="xMidYMid meet">
<metadata>
Created by potrace 1.16, written by Peter Selinger 2001-2019
</metadata>
<g transform="translate(0.000000,225.000000) scale(0.100000,-0.100000)"
fill="#000000" stroke="none">
<path d="M825 1907 c-96 -39 -203 -108 -265 -171 -32 -33 -52 -46 -72 -46 -26
0 -28 -2 -18 -20 12 -23 6 -40 -16 -40 -8 0 -14 -6 -12 -12 1 -7 -10 -34 -25
-59 -35 -59 -70 -147 -93 -229 -26 -97 -24 -299 5 -405 87 -320 341 -553 666
-610 48 -8 111 -15 140 -15 82 0 219 27 306 61 84 33 207 109 249 154 l25 28
-41 -26 c-59 -36 -153 -75 -232 -94 -92 -22 -275 -22 -367 1 -117 30 -352 154
-292 156 9 0 17 6 17 13 0 9 2 9 8 -1 7 -9 52 -12 191 -10 l183 3 253 410
c223 360 257 410 281 413 18 3 30 12 37 33 11 27 15 29 64 29 l52 0 36 77 c20
43 38 88 41 100 l6 23 -214 0 -215 0 -13 -25 c-11 -20 -21 -25 -54 -25 l-41 0
-185 -317 -185 -316 -3 351 -2 352 -114 0 -115 0 -4 -32 -4 -33 -1 33 -2 32
-91 0 -90 0 40 48 c47 56 118 113 203 165 75 45 67 46 -37 4z m-37 -304 c2
-46 -1 -73 -8 -73 -7 0 -10 -129 -10 -400 0 -260 4 -400 10 -400 6 0 10 -30
10 -70 l0 -70 -120 0 -120 0 0 70 c0 40 4 70 10 70 7 0 10 140 10 400 0 332
-2 400 -14 400 -11 0 -39 53 -73 138 -4 10 27 12 148 10 l154 -3 3 -72z m242
-360 l5 -431 250 425 250 426 195 -7 c107 -4 197 -9 199 -12 2 -2 -12 -39 -32
-81 l-35 -78 -73 -5 -73 -5 -272 -440 -272 -440 -176 -3 -176 -2 0 538 c0 296
3 542 7 546 4 4 50 5 103 4 l95 -3 5 -432z m-500 -69 c0 -156 -2 -284 -5 -284
-2 0 -16 37 -31 83 -31 98 -44 279 -25 367 23 110 31 129 46 124 13 -5 15 -49
15 -290z"/>
</g>
</svg>
